<?xml version="1.0" encoding="utf-8"?>
<!-- Generator: Adobe Illustrator 24.1.1, SVG Export Plug-In . SVG Version: 6.00 Build 0)  -->
<svg version="1.1" id="Layer_1" xmlns="http://www.w3.org/2000/svg" xmlns:xlink="http://www.w3.org/1999/xlink" x="0px" y="0px"
	 viewBox="0 0 70 70" style="enable-background:new 0 0 70 70;" xml:space="preserve">
<style type="text/css">
	.st0{fill:#453486;}
	.st1{fill:#251151;}
	.st2{fill:#EC5569;}
	.st3{fill:#FFF5F5;}
	.st4{fill:#DCE6EB;}
</style>
<g>
	<path class="st0" d="M53.3,5H16.7c-6.1,0-11,4.9-11,11v24c0,6.1,4.9,11,11,11h5.3c0.3,0,0.5,0.2,0.5,0.5v11.9
		c0,1.4,1.7,2.1,2.7,1.1l12.4-13.2c0.1-0.1,0.2-0.1,0.3-0.1h15.5c6.1,0,11-4.9,11-11V16C64.4,9.9,59.4,5,53.3,5z"/>
	<path class="st1" d="M27,47c0-0.3-0.2-0.5-0.4-0.5h-5.1c-5.9,0-10.7-5.2-10.7-11.6V9.6c0-1.1,0.1-2.1,0.4-3.1
		C7.9,8.4,5.6,11.9,5.6,16v24c0,6.1,4.9,11,11,11h5.3c0.3,0,0.5,0.2,0.5,0.5v11.9c0,1.4,1.7,2.1,2.7,1.1l2-2.1L27,47L27,47z"/>
	<path class="st2" d="M47.4,19.3L47.4,19.3c-2.8-2.8-7.4-2.8-10.2,0l-1.6,1.6c-0.4,0.4-1,0.4-1.4,0l-1.6-1.6
		c-2.8-2.8-7.4-2.8-10.2,0l0,0c-2.8,2.8-2.8,7.4,0,10.2l11.7,11.7c0.4,0.4,1,0.4,1.4,0l11.7-11.7C50.2,26.7,50.2,22.1,47.4,19.3z"/>
	<path class="st3" d="M47.4,19.3L47.4,19.3c-2.8-2.8-7.4-2.8-10.2,0l-1.6,1.6c-0.4,0.4-1,0.4-1.4,0l-1.6-1.6
		c-2.8-2.8-7.4-2.8-10.2,0l0,0c-2.8,2.8-2.8,7.4,0,10.2l11.7,11.7c0.4,0.4,1,0.4,1.4,0l11.7-11.7C50.2,26.7,50.2,22.1,47.4,19.3z"/>
	<path class="st4" d="M26.3,29.5c-2.8-2.8-2.8-7.4,0-10.2l0,0c0.9-0.9,2-1.5,3.2-1.9c-2.4-0.6-5.1,0-7,1.9l0,0
		c-2.8,2.8-2.8,7.4,0,10.2l11.7,11.7c0.4,0.4,1,0.4,1.4,0l1.2-1.2L26.3,29.5z"/>
</g>
</svg>
