<?xml version="1.0" encoding="utf-8"?>
<!-- Generator: Adobe Illustrator 24.1.1, SVG Export Plug-In . SVG Version: 6.00 Build 0)  -->
<svg version="1.1" id="Layer_1" xmlns="http://www.w3.org/2000/svg" xmlns:xlink="http://www.w3.org/1999/xlink" x="0px" y="0px"
	 viewBox="0 0 110 70" style="enable-background:new 0 0 110 70;" xml:space="preserve">
<style type="text/css">
	.st0{fill:#433784;}
</style>
<g>
	<path class="st0" d="M17.8,66.9c0,0.3-0.3,0.6-0.6,0.6H0.8c-0.3,0-0.6-0.3-0.6-0.6V38.6c0-0.3,0.3-0.6,0.6-0.6H8
		c0.3,0,0.6,0.3,0.6,0.6v22h8.7c0.3,0,0.6,0.3,0.6,0.6v5.7C17.9,66.9,17.8,66.9,17.8,66.9z"/>
	<path class="st0" d="M17.3,13.8c0.3,0,0.6,0.3,0.6,0.6v5.9c0,0.3-0.3,0.6-0.6,0.6H8.6v10.6c0,0.3-0.3,0.6-0.6,0.6H0.9
		c-0.3,0-0.6-0.3-0.6-0.6V3.2c0-0.3,0.3-0.6,0.6-0.6h17.8c0.3,0,0.6,0.3,0.6,0.6v5.9c0,0.3-0.3,0.6-0.6,0.6H8.5v4.2L17.3,13.8
		L17.3,13.8z"/>
	<path class="st0" d="M27,66.9c0,0.3-0.3,0.6-0.6,0.6h-7.1c-0.3,0-0.6-0.3-0.6-0.6V38.6c0-0.3,0.3-0.6,0.6-0.6h7.1
		c0.3,0,0.6,0.3,0.6,0.6V66.9z"/>
	<path class="st0" d="M53.8,66.9c0,0.3-0.3,0.6-0.6,0.6h-7.4c-0.2,0-0.4-0.1-0.5-0.3l-9.2-16.3v16c0,0.3-0.3,0.6-0.6,0.6h-7.1
		c-0.3,0-0.6-0.3-0.6-0.6V38.6c0-0.3,0.3-0.6,0.6-0.6h7.4c0.2,0,0.4,0.1,0.5,0.3l9.2,14.9V38.6c0-0.3,0.3-0.6,0.6-0.6h7.1
		c0.3,0,0.6,0.3,0.6,0.6C53.8,38.6,53.8,66.9,53.8,66.9z"/>
	<path class="st0" d="M67.9,25.3c0.3,0,0.6,0.3,0.6,0.6v5.7c0,0.3-0.3,0.6-0.6,0.6H51.5c-0.3,0-0.6-0.3-0.6-0.6V3.3
		c0-0.3,0.3-0.6,0.6-0.6h7.1c0.3,0,0.6,0.3,0.6,0.6v22H67.9L67.9,25.3z"/>
	<path class="st0" d="M73.1,44.4c0,0.3-0.3,0.6-0.6,0.6h-9.6v4.2h8.3c0.3,0,0.6,0.3,0.6,0.6v5.9c0,0.3-0.3,0.6-0.6,0.6h-8.3v4.2h9.6
		c0.3,0,0.6,0.3,0.6,0.6V67c0,0.3-0.3,0.6-0.6,0.6H55.2c-0.3,0-0.6-0.3-0.6-0.6V38.8c0-0.3,0.3-0.6,0.6-0.6h17.3
		c0.3,0,0.6,0.3,0.6,0.6V44.4z"/>
	<path class="st0" d="M69.3,31.5V3.2c0-0.3,0.3-0.6,0.6-0.6H77c0.3,0,0.6,0.3,0.6,0.6v28.3c0,0.3-0.3,0.6-0.6,0.6h-7.1
		C69.6,32.1,69.3,31.9,69.3,31.5"/>
	<path class="st0" d="M80.3,67.9c-2.3,0-4.2-1.9-4.2-4.2s1.9-4.2,4.2-4.2c2.3,0,4.2,1.9,4.2,4.2C84.5,65.9,82.6,67.9,80.3,67.9"/>
	<path class="st0" d="M94.2,2.1c-8.6,0-15.6,6.9-15.6,15.4s7,15.4,15.6,15.4s15.5-6.9,15.6-15.4C109.8,9,102.8,2.1,94.2,2.1z
		 M94.2,24.5c-3.9,0-7.1-3.1-7.1-7c0-3.8,3.2-7,7.1-7s7.1,3.2,7.1,7C101.3,21.4,98,24.5,94.2,24.5z"/>
	<path class="st0" d="M34.5,2.2c-8.6,0-15.6,6.9-15.6,15.4S25.8,33,34.5,33C43,33,50,26.1,50,17.6S43,2.2,34.5,2.2z M34.5,24.6
		c-3.9,0-7.1-3.2-7.1-7s3.2-7,7.1-7s7.1,3.1,7.1,7C41.5,21.4,38.3,24.6,34.5,24.6z"/>
</g>
</svg>
